<svg version="1.2" xmlns="http://www.w3.org/2000/svg" viewBox="0 0 700 250" width="700" height="250"><style>.a{fill:#ff2d20}</style><path class="a" d="m397.9 211.3v-165.5h47.6l60.2 113.5v-113.5h40.5v165.5h-47.7l-60.2-113.5v113.5z"/><path class="a" d="m254.8 211.3v-165.5h54.3l37.7 88.5 37.9-88.5h54.2v165.5h-40.3v-121.1l-38.1 89.3h-27.1l-38.1-89.3v121.1z"/><path class="a" d="m147.9 211.3v-165.5h47.6l60.2 113.5v-113.5h40.5v165.5h-47.7l-60.2-113.5v113.5z"/><path class="a" d="m116.6 205.8h7.6v25h-24q-24.2 0-35.3-9.8-11.1-9.7-11.1-31.1v-21.3q0-16.6-5.9-23-6-6.6-21.8-6.6h-6.7v-24.7h6.7q15.8 0 21.8-6.4 5.9-6.5 5.9-23.1v-22.7q0-21.4 11.1-31 11.1-9.8 35.3-9.8h24v24.9h-7.6q-15.6 0-20.4 4.9-4.7 4.8-4.7 20.5v18.4q0 17.4-5 25.3-4.9 7.9-17.1 10.6 12.3 3 17.1 10.9 5 7.9 5 25.2v18.4q0 15.8 4.7 20.7 4.8 4.7 20.4 4.7zm459.5 25v-25h7.8q15.5 0 20.2-4.7 4.7-4.9 4.7-20.7v-18.4q0-17.3 5-25.2 5-7.9 17.3-10.9-12.3-2.7-17.3-10.6-5-7.9-5-25.3v-18.4q0-15.7-4.7-20.5-4.7-4.9-20.2-4.9h-7.8v-24.9h24.1q24.1 0 35.2 9.8 11.1 9.6 11.1 31v22.7q0 16.6 6 23.1 6 6.4 21.7 6.4h6.8v24.7h-6.8q-15.7 0-21.7 6.6-6 6.4-6 23v21.3q0 21.4-11.1 31.1-11.1 9.8-35.2 9.8z"/></svg>